<svg width="50" height="50" viewBox="0 0 50 50" fill="none" xmlns="http://www.w3.org/2000/svg">
<rect width="50" height="50" rx="11.7188" fill="white"/>
<mask id="mask0_145_301" style="mask-type:luminance" maskUnits="userSpaceOnUse" x="10" y="10" width="30" height="30">
<path d="M39.6543 10.3455H10.3452V39.6545H39.6543V10.3455Z" fill="white"/>
</mask>
<g mask="url(#mask0_145_301)">
<path fill-rule="evenodd" clip-rule="evenodd" d="M31.8561 31.8564C36.3693 30.4885 39.6543 26.2961 39.6543 21.3364C39.6543 15.2662 34.7335 10.3455 28.6634 10.3455C23.7037 10.3455 19.5112 13.6306 18.1434 18.1436C13.6304 19.5115 10.3452 23.7039 10.3452 28.6636C10.3452 34.7338 15.266 39.6545 21.3361 39.6545C26.2958 39.6545 30.4882 36.3695 31.8561 31.8564ZM28.6634 32.3273C29.7738 32.3273 30.8457 32.1626 31.8561 31.8564C32.1624 30.846 32.327 29.774 32.327 28.6636C32.327 22.5935 27.4062 17.6727 21.3361 17.6727C20.2257 17.6727 19.1538 17.8374 18.1434 18.1436C17.8372 19.154 17.6725 20.226 17.6725 21.3364C17.6725 27.4065 22.5933 32.3273 28.6634 32.3273Z" fill="#1E1E1E"/>
</g>
</svg>
