<svg width="16" height="16" viewBox="0 0 16 16" fill="none" xmlns="http://www.w3.org/2000/svg">
<rect x="0.5" y="0.5" width="15" height="15" rx="3.51562" fill="white"/>
<mask id="mask0_145_301" style="mask-type:luminance" maskUnits="userSpaceOnUse" x="3" y="3" width="10" height="10">
<path d="M12.3962 3.60364H3.60352V12.3964H12.3962V3.60364Z" fill="white"/>
</mask>
<g mask="url(#mask0_145_301)">
<path fill-rule="evenodd" clip-rule="evenodd" d="M10.0568 10.0569C11.4107 9.64655 12.3962 8.38883 12.3962 6.90091C12.3962 5.07987 10.92 3.60364 9.09897 3.60364C7.61105 3.60364 6.35332 4.58919 5.94297 5.94309C4.58906 6.35345 3.60352 7.61117 3.60352 9.09909C3.60352 10.9201 5.07975 12.3964 6.90079 12.3964C8.3887 12.3964 9.64642 11.4109 10.0568 10.0569ZM9.09897 10.1982C9.43209 10.1982 9.75367 10.1488 10.0568 10.0569C10.1487 9.75379 10.1981 9.43221 10.1981 9.09909C10.1981 7.27805 8.72182 5.80182 6.90079 5.80182C6.56767 5.80182 6.24609 5.85122 5.94297 5.94309C5.8511 6.24621 5.8017 6.56779 5.8017 6.90091C5.8017 8.72195 7.27793 10.1982 9.09897 10.1982Z" fill="#1E1E1E"/>
</g>
</svg>
